<?xml version="1.0" standalone="yes"?>
<svg xmlns="http://www.w3.org/2000/svg" width="2000" height="1247">
<path style="fill:#010101; stroke:none;" d="M0 0L0 1247L2000 1247L2000 0L0 0z"/>
<path style="fill:#ff6d29; stroke:none;" d="M764 366C770.574 366 783.979 368.57 789.61 364.972C794.218 362.028 797.316 351.825 799.752 347C806.496 333.642 814.192 320.55 822.343 308C852.958 260.864 888.687 217.47 931 180.286C1050.76 75.041 1213.77 18.9541 1373 34.1698C1454.28 41.9366 1533.14 65.4391 1605 104.309C1657.17 132.53 1703.18 169.18 1745 211C1898.17 364.174 1949.7 596.934 1885.97 802C1861 882.375 1817.07 956.395 1761.17 1019C1712.08 1073.97 1651.45 1120.96 1585 1153.14C1382.39 1251.27 1138.76 1229.64 960 1090.58C909.255 1051.1 863.58 1003.17 828.692 949C819.049 934.029 809.433 918.839 801.258 903C798.312 897.291 795.149 885.562 789.61 882.028C783.973 878.432 770.579 881 764 881C769.534 900.218 781.925 918.865 791.989 936C816.235 977.283 844.876 1015.4 877.961 1050C1050.88 1230.83 1323.91 1290.13 1556 1196.4C1730.74 1125.82 1866.86 975.386 1918.57 794C1936.89 729.738 1943.62 663.645 1941.99 597C1940.38 531.418 1925.47 464.088 1901.81 403C1872.91 328.389 1830.52 259.623 1775.91 201C1738.24 160.563 1694.32 124.776 1647 96.2037C1428.42 -35.7871 1141.46 -20.9614 941 139.4C885.753 183.595 838.571 236.016 800.95 296C787.574 317.327 771.015 341.64 764 366z"/>
<path style="fill:#ff0101; stroke:none;" d="M1268 8L1269 9L1268 8z"/>
<path style="fill:#ff7b09; stroke:none;" d="M1380 8L1381 9L1380 8M1258 9L1259 10L1258 9z"/>
<path style="fill:#ff590c; stroke:none;" d="M1399 10L1400 11L1399 10z"/>
<path style="fill:#ff7b09; stroke:none;" d="M1414 12L1415 13L1414 12M1228 13L1229 14L1228 13M1222 14L1223 15L1222 14z"/>
<path style="fill:#ff590c; stroke:none;" d="M1216 15L1217 16L1216 15z"/>
<path style="fill:#ff0101; stroke:none;" d="M1438 16L1439 17L1438 16z"/>
<path style="fill:#ff7b09; stroke:none;" d="M1443 17L1444 18L1443 17M1448 18L1449 19L1448 18z"/>
<path style="fill:#ff0101; stroke:none;" d="M1453 19L1454 20L1453 19z"/>
<path style="fill:#ff7b09; stroke:none;" d="M1191 20L1192 21L1191 20M1462 21L1463 22L1462 21M1178 23L1179 24L1178 23M1174 24L1175 25L1174 24z"/>
<path style="fill:#ff590c; stroke:none;" d="M1170 25L1171 26L1170 25M1486 27L1487 28L1486 27z"/>
<path style="fill:#ff7b09; stroke:none;" d="M1159 28L1160 29L1159 28M1152 30L1153 31L1152 30M1500 31L1501 32L1500 31M1145 32L1146 33L1145 32z"/>
<path style="fill:#ff590c; stroke:none;" d="M1298 32L1299 33L1298 32z"/>
<path style="fill:#ff7b09; stroke:none;" d="M1345 32L1346 33L1345 32z"/>
<path style="fill:#ff0101; stroke:none;" d="M1363 33L1364 34L1363 33z"/>
<path style="fill:#ff590c; stroke:none;" d="M1510 34L1511 35L1510 34z"/>
<path style="fill:#ff0101; stroke:none;" d="M1258 35L1259 36L1258 35z"/>
<path style="fill:#ff590c; stroke:none;" d="M1415 39L1416 40L1415 39M1525 39L1526 40L1525 39z"/>
<path style="fill:#ff7b09; stroke:none;" d="M1222 40L1223 41L1222 40M1528 40L1529 41L1528 40z"/>
<path style="fill:#ff0101; stroke:none;" d="M1531 41L1532 42L1531 41z"/>
<path style="fill:#ff7b09; stroke:none;" d="M1115 42L1116 43L1115 42z"/>
<path style="fill:#ff590c; stroke:none;" d="M1211 42L1212 43L1211 42M1432 42L1433 43L1432 42z"/>
<path style="fill:#ff7b09; stroke:none;" d="M1206 43L1207 44L1206 43M1437 43L1438 44L1437 43z"/>
<path style="fill:#ff590c; stroke:none;" d="M1201 44L1202 45L1201 44z"/>
<path style="fill:#ff0101; stroke:none;" d="M1542 45L1543 46L1542 45z"/>
<path style="fill:#ff590c; stroke:none;" d="M1099 48L1100 49L1099 48z"/>
<path style="fill:#ff7b09; stroke:none;" d="M1094 50L1095 51L1094 50M1089 52L1090 53L1089 52M1164 53L1165 54L1164 53M1082 55L1083 56L1082 55M1157 55L1158 56L1157 55z"/>
<path style="fill:#ff0101; stroke:none;" d="M1567 55L1568 56L1567 55z"/>
<path style="fill:#ff590c; stroke:none;" d="M1493 57L1494 58L1493 57M1075 58L1076 59L1075 58z"/>
<path style="fill:#ff7b09; stroke:none;" d="M1147 58L1148 59L1147 58z"/>
<path style="fill:#ff0101; stroke:none;" d="M1144 59L1145 60L1144 59z"/>
<path style="fill:#ff7b09; stroke:none;" d="M1576 59L1577 60L1576 59M1064 63L1065 64L1064 63M1587 64L1588 65L1587 64M1123 66L1124 67L1123 66M1526 68L1527 69L1526 68z"/>
<path style="fill:#ff0101; stroke:none;" d="M1115 69L1116 70L1115 69z"/>
<path style="fill:#ff7b09; stroke:none;" d="M1107 72L1108 73L1107 72M1539 73L1540 74L1539 73z"/>
<path style="fill:#ff0101; stroke:none;" d="M1102 74L1103 75L1102 74z"/>
<path style="fill:#ff590c; stroke:none;" d="M1544 75L1545 76L1544 75z"/>
<path style="fill:#ff7b09; stroke:none;" d="M1097 76L1098 77L1097 76z"/>
<path style="fill:#ff590c; stroke:none;" d="M1611 76L1612 77L1611 76M1549 77L1550 78L1549 77z"/>
<path style="fill:#ff7b09; stroke:none;" d="M1613 77L1614 78L1613 77M1034 78L1035 79L1034 78M1615 78L1616 79L1615 78z"/>
<path style="fill:#ff590c; stroke:none;" d="M1032 79L1033 80L1032 79z"/>
<path style="fill:#ff7b09; stroke:none;" d="M1556 80L1557 81L1556 80M1083 82L1084 83L1083 82z"/>
<path style="fill:#ff590c; stroke:none;" d="M1624 83L1625 84L1624 83M1565 84L1566 85L1565 84z"/>
<path style="fill:#ff0101; stroke:none;" d="M1626 84L1627 85L1626 84M1021 85L1022 86L1021 85z"/>
<path style="fill:#ff590c; stroke:none;" d="M1074 86L1075 87L1074 86z"/>
<path style="fill:#ff7b09; stroke:none;" d="M1072 87L1073 88L1072 87z"/>
<path style="fill:#ff590c; stroke:none;" d="M1633 88L1634 89L1633 88z"/>
<path style="fill:#ff7b09; stroke:none;" d="M1014 89L1015 90L1014 89M1578 90L1579 91L1578 90z"/>
<path style="fill:#ff590c; stroke:none;" d="M1638 91L1639 92L1638 91z"/>
<path style="fill:#ff7b09; stroke:none;" d="M1009 92L1010 93L1009 92M1582 92L1583 93L1582 92M1584 93L1585 94L1584 93z"/>
<path style="fill:#ff0101; stroke:none;" d="M1586 94L1587 95L1586 94z"/>
<path style="fill:#ff590c; stroke:none;" d="M1588 95L1589 96L1588 95z"/>
<path style="fill:#ff7b09; stroke:none;" d="M1590 96L1591 97L1590 96z"/>
<path style="fill:#ff0101; stroke:none;" d="M999 98L1000 99L999 98z"/>
<path style="fill:#ff7b09; stroke:none;" d="M1594 98L1595 99L1594 98z"/>
<path style="fill:#ff0101; stroke:none;" d="M1653 100L1654 101L1653 100z"/>
<path style="fill:#ff7b09; stroke:none;" d="M1042 102L1043 103L1042 102M988 105L989 106L988 105M1607 105L1608 106L1607 105z"/>
<path style="fill:#ff590c; stroke:none;" d="M982 109L983 110L982 109z"/>
<path style="fill:#ff0101; stroke:none;" d="M1614 109L1615 110L1614 109z"/>
<path style="fill:#ff7b09; stroke:none;" d="M1616 110L1617 111L1616 110M979 111L980 112L979 111M1024 112L1025 113L1024 112M976 113L977 114L976 113M1621 113L1622 114L1621 113z"/>
<path style="fill:#ff0101; stroke:none;" d="M973 115L974 116L973 115z"/>
<path style="fill:#ff7b09; stroke:none;" d="M1019 115L1020 116L1019 115z"/>
<path style="fill:#ff0101; stroke:none;" d="M1626 116L1627 117L1626 116z"/>
<path style="fill:#ff7b09; stroke:none;" d="M1677 116L1678 117L1677 116z"/>
<path style="fill:#ff590c; stroke:none;" d="M1014 118L1015 119L1014 118z"/>
<path style="fill:#ff7b09; stroke:none;" d="M1680 118L1681 119L1680 118M1631 119L1632 120L1631 119M966 120L967 121L966 120M1006 123L1007 124L1006 123z"/>
<path style="fill:#ff0101; stroke:none;" d="M1687 123L1688 124L1687 123z"/>
<path style="fill:#ff7b09; stroke:none;" d="M1639 124L1640 125L1639 124z"/>
<path style="fill:#ff590c; stroke:none;" d="M959 125L960 126L959 125z"/>
<path style="fill:#ff7b09; stroke:none;" d="M955 128L956 129L955 128M992 132L993 133L992 132z"/>
<path style="fill:#ff590c; stroke:none;" d="M1699 132L1700 133L1699 132z"/>
<path style="fill:#ff0101; stroke:none;" d="M947 134L948 135L947 134z"/>
<path style="fill:#ff7b09; stroke:none;" d="M1703 135L1704 136L1703 135z"/>
<path style="fill:#ff590c; stroke:none;" d="M942 138L943 139L942 138z"/>
<path style="fill:#ff0101; stroke:none;" d="M1660 138L1661 139L1660 138z"/>
<path style="fill:#ff590c; stroke:none;" d="M1708 139L1709 140L1708 139M937 142L938 143L937 142z"/>
<path style="fill:#ff0101; stroke:none;" d="M1667 143L1668 144L1667 143z"/>
<path style="fill:#ff7b09; stroke:none;" d="M1713 143L1714 144L1713 143z"/>
<path style="fill:#ff0101; stroke:none;" d="M975 144L976 145L975 144z"/>
<path style="fill:#ff7b09; stroke:none;" d="M932 146L933 147L932 146z"/>
<path style="fill:#ff590c; stroke:none;" d="M972 146L973 147L972 146M1674 148L1675 149L1674 148M1719 148L1720 149L1719 148z"/>
<path style="fill:#ff7b09; stroke:none;" d="M926 151L927 152L926 151M1725 153L1726 154L1725 153z"/>
<path style="fill:#ff0101; stroke:none;" d="M920 156L921 157L920 156M959 156L960 157L959 156z"/>
<path style="fill:#ff7b09; stroke:none;" d="M919 157L920 158L919 157z"/>
<path style="fill:#ff590c; stroke:none;" d="M1687 158L1688 159L1687 158z"/>
<path style="fill:#ff7b09; stroke:none;" d="M955 159L956 160L955 159z"/>
<path style="fill:#ff0101; stroke:none;" d="M1732 159L1733 160L1732 159z"/>
<path style="fill:#ff590c; stroke:none;" d="M1692 162L1693 163L1692 162z"/>
<path style="fill:#ff7b09; stroke:none;" d="M911 164L912 165L911 164M1697 166L1698 167L1697 166M944 168L945 169L944 168M1742 168L1743 169L1742 168z"/>
<path style="fill:#ff590c; stroke:none;" d="M1743 169L1744 170L1743 169M938 173L939 174L938 173z"/>
<path style="fill:#ff0101; stroke:none;" d="M898 176L899 177L898 176M897 177L898 178L897 177z"/>
<path style="fill:#ff7b09; stroke:none;" d="M1710 177L1711 178L1710 177z"/>
<path style="fill:#ff590c; stroke:none;" d="M896 178L897 179L896 178z"/>
<path style="fill:#ff0101; stroke:none;" d="M1711 178L1712 179L1711 178z"/>
<path style="fill:#ff7b09; stroke:none;" d="M895 179L896 180L895 179M931 179L932 180L931 179M930 180L931 181L930 180z"/>
<path style="fill:#ff590c; stroke:none;" d="M1720 186L1721 187L1720 186z"/>
<path style="fill:#ff7b09; stroke:none;" d="M921 188L922 189L921 188M920 189L921 190L920 189z"/>
<path style="fill:#ff0101; stroke:none;" d="M919 190L920 191L919 190z"/>
<path style="fill:#ff590c; stroke:none;" d="M879 195L880 196L879 195z"/>
<path style="fill:#ff0101; stroke:none;" d="M878 196L879 197L878 196M877 197L878 198L877 197z"/>
<path style="fill:#ff590c; stroke:none;" d="M1779 205L1780 206L1779 205z"/>
<path style="fill:#ff7b09; stroke:none;" d="M866 209L867 210L866 209z"/>
<path style="fill:#ff590c; stroke:none;" d="M865 210L866 211L865 210M1787 214L1788 215L1787 214M1788 215L1789 216L1788 215z"/>
<path style="fill:#ff0101; stroke:none;" d="M857 219L858 220L857 219M888 221L889 222L888 221z"/>
<path style="fill:#ff7b09; stroke:none;" d="M887 222L888 223L887 222M1794 222L1795 223L1794 222z"/>
<path style="fill:#ff0101; stroke:none;" d="M1758 224L1759 225L1758 224z"/>
<path style="fill:#ff590c; stroke:none;" d="M852 225L853 226L852 225z"/>
<path style="fill:#ff7b09; stroke:none;" d="M847 231L848 232L847 231M878 232L879 233L878 232z"/>
<path style="fill:#ff590c; stroke:none;" d="M1767 234L1768 235L1767 234z"/>
<path style="fill:#ff7b09; stroke:none;" d="M1804 234L1805 235L1804 234M1808 239L1809 240L1808 239z"/>
<path style="fill:#ff590c; stroke:none;" d="M1773 241L1774 242L1773 241z"/>
<path style="fill:#ff0101; stroke:none;" d="M1812 244L1813 245L1812 244M835 246L836 247L835 246z"/>
<path style="fill:#ff7b09; stroke:none;" d="M1778 247L1779 248L1778 247M1815 248L1816 249L1815 248M832 250L833 251L832 250M862 251L863 252L862 251z"/>
<path style="fill:#ff0101; stroke:none;" d="M1782 252L1783 253L1782 252z"/>
<path style="fill:#ff7b09; stroke:none;" d="M1818 252L1819 253L1818 252M829 254L830 255L829 254z"/>
<path style="fill:#ff0101; stroke:none;" d="M858 256L859 257L858 256M1786 257L1787 258L1786 257M826 258L827 259L826 258M1824 260L1825 261L1824 260z"/>
<path style="fill:#ff7b09; stroke:none;" d="M854 261L855 262L854 261M1790 262L1791 263L1790 262M821 265L822 266L821 265z"/>
<path style="fill:#ff590c; stroke:none;" d="M851 265L852 266L851 265z"/>
<path style="fill:#ff7b09; stroke:none;" d="M1793 266L1794 267L1793 266z"/>
<path style="fill:#ff590c; stroke:none;" d="M1829 267L1830 268L1829 267M819 268L820 269L819 268z"/>
<path style="fill:#ff0101; stroke:none;" d="M848 269L849 270L848 269z"/>
<path style="fill:#ff7b09; stroke:none;" d="M1796 270L1797 271L1796 270z"/>
<path style="fill:#ff590c; stroke:none;" d="M1799 274L1800 275L1799 274z"/>
<path style="fill:#ff0101; stroke:none;" d="M814 275L815 276L814 275z"/>
<path style="fill:#ff590c; stroke:none;" d="M842 277L843 278L842 277z"/>
<path style="fill:#ff7b09; stroke:none;" d="M812 278L813 279L812 278z"/>
<path style="fill:#ff0101; stroke:none;" d="M840 280L841 281L840 280z"/>
<path style="fill:#ff7b09; stroke:none;" d="M810 281L811 282L810 281M1804 281L1805 282L1804 281M808 284L809 285L808 284z"/>
<path style="fill:#ff590c; stroke:none;" d="M833 290L834 291L833 290z"/>
<path style="fill:#ff7b09; stroke:none;" d="M1811 291L1812 292L1811 291M831 293L832 294L831 293M1813 294L1814 295L1813 294M1847 294L1848 295L1847 294M801 295L802 296L801 295z"/>
<path style="fill:#ff0101; stroke:none;" d="M829 296L830 297L829 296z"/>
<path style="fill:#ff7b09; stroke:none;" d="M1815 297L1816 298L1815 297z"/>
<path style="fill:#ff0101; stroke:none;" d="M827 299L828 300L827 299z"/>
<path style="fill:#ff7b09; stroke:none;" d="M1817 300L1818 301L1817 300z"/>
<path style="fill:#ff0101; stroke:none;" d="M1852 302L1853 303L1852 302M796 303L797 304L796 303M1855 307L1856 308L1855 307M820 310L821 311L820 310z"/>
<path style="fill:#ff7b09; stroke:none;" d="M1824 311L1825 312L1824 311M1859 314L1860 315L1859 314z"/>
<path style="fill:#ff590c; stroke:none;" d="M789 315L790 316L789 315z"/>
<path style="fill:#ff0101; stroke:none;" d="M1827 316L1828 317L1827 316M1862 319L1863 320L1862 319z"/>
<path style="fill:#ff7b09; stroke:none;" d="M1830 321L1831 322L1830 321z"/>
<path style="fill:#ff590c; stroke:none;" d="M1863 321L1864 322L1863 321z"/>
<path style="fill:#ff0101; stroke:none;" d="M785 322L786 323L785 322z"/>
<path style="fill:#ff7b09; stroke:none;" d="M784 324L785 325L784 324z"/>
<path style="fill:#ff590c; stroke:none;" d="M1833 326L1834 327L1833 326z"/>
<path style="fill:#ff7b09; stroke:none;" d="M808 330L809 331L808 330M1868 330L1869 331L1868 330z"/>
<path style="fill:#ff590c; stroke:none;" d="M1837 333L1838 334L1837 333z"/>
<path style="fill:#ff7b09; stroke:none;" d="M778 335L779 336L778 335M803 339L804 340L803 339M1842 342L1843 343L1842 342z"/>
<path style="fill:#ff0101; stroke:none;" d="M1843 344L1844 345L1843 344z"/>
<path style="fill:#ff7b09; stroke:none;" d="M795 354L796 355L795 354M794 356L795 357L794 356M767 357L768 358L767 357z"/>
<path style="fill:#ff0101; stroke:none;" d="M766 359L767 360L766 359z"/>
<path style="fill:#ff7b09; stroke:none;" d="M1885 364L1886 365L1885 364z"/>
<path style="fill:#ff0101; stroke:none;" d="M1886 366L1887 367L1886 366z"/>
<path style="fill:#ff590c; stroke:none;" d="M1889 373L1890 374L1889 373z"/>
<path style="fill:#ff0101; stroke:none;" d="M1858 374L1859 375L1858 374M1890 375L1891 376L1890 375z"/>
<path style="fill:#ff7b09; stroke:none;" d="M1893 382L1894 383L1893 382M1863 385L1864 386L1863 385z"/>
<path style="fill:#ff590c; stroke:none;" d="M1895 387L1896 388L1895 387M1901 402L1902 403L1901 402z"/>
<path style="fill:#ff7b09; stroke:none;" d="M1871 404L1872 405L1871 404M1873 409L1874 410L1873 409M1876 417L1877 418L1876 417z"/>
<path style="fill:#ff0101; stroke:none;" d="M1908 421L1909 422L1908 421z"/>
<path style="fill:#ff590c; stroke:none;" d="M1909 424L1910 425L1909 424M1879 425L1880 426L1879 425z"/>
<path style="fill:#ff7b09; stroke:none;" d="M1910 427L1911 428L1910 427M1880 428L1881 429L1880 428M1911 430L1912 431L1911 430z"/>
<path style="fill:#ff6d29; stroke:none;" d="M1432 431.518C1408.99 436.426 1406 458.385 1406 478L1406 620L1406 747C1406 763.962 1402.06 787.276 1412.22 801.999C1423.3 818.045 1440.86 816 1458 816L1548 816C1561.93 816 1578.37 818.395 1592 815.482C1616.24 810.302 1617 787.961 1617 768L1617 627L1617 499C1617 482.673 1621.43 459.127 1611.78 445.001C1600.85 429.009 1583 431 1566 431L1476 431C1462.07 431 1445.63 428.609 1432 431.518z"/>
<path style="fill:#ff590c; stroke:none;" d="M1591 431L1592 432L1591 431z"/>
<path style="fill:#ff7b09; stroke:none;" d="M1881 431L1882 432L1881 431z"/>
<path style="fill:#ff0101; stroke:none;" d="M1912 433L1913 434L1912 433M1882 434L1883 435L1882 434z"/>
<path style="fill:#ff7b09; stroke:none;" d="M1601 435L1602 436L1601 435z"/>
<path style="fill:#010101; stroke:none;" d="M1435 436.468C1411.71 440.833 1412 462.243 1412 481L1412 616L1412 746C1412 761.573 1407.41 785.633 1416.8 798.999C1427.11 813.676 1445.36 811 1461 811L1547 811C1560.6 811 1576.73 813.366 1590 810.319C1613.37 804.957 1612 782.957 1612 764L1612 625L1612 498C1612 482.72 1616.38 459.84 1606.47 447.004C1595.75 433.122 1577.45 436 1562 436L1478 436C1464.22 436 1448.55 433.928 1435 436.468z"/>
<path style="fill:#ff7b09; stroke:none;" d="M1419 437L1420 438L1419 437z"/>
<path style="fill:#ff0101; stroke:none;" d="M1604 437L1605 438L1604 437M1428 438L1429 439L1428 438z"/>
<path style="fill:#ff7b09; stroke:none;" d="M1595 438L1596 439L1595 438z"/>
<path style="fill:#ff0101; stroke:none;" d="M1597 439L1598 440L1597 439M1884 440L1885 441L1884 440M1610 443L1611 444L1610 443z"/>
<path style="fill:#ff590c; stroke:none;" d="M1885 443L1886 444L1885 443z"/>
<path style="fill:#ff7b09; stroke:none;" d="M1916 446L1917 447L1916 446z"/>
<path style="fill:#ff0101; stroke:none;" d="M1615 452L1616 453L1615 452z"/>
<path style="fill:#ff7b09; stroke:none;" d="M1413 454L1414 455L1413 454z"/>
<path style="fill:#ff0101; stroke:none;" d="M1407 455L1408 456L1407 455z"/>
<path style="fill:#ff6d29; stroke:none;" d="M1476.04 455.573C1469.47 457.582 1468.43 467.52 1475.05 470.258C1480.09 472.337 1487.64 471 1493 471L1531 471C1536.45 471 1544.99 472.581 1549.89 469.821C1556.55 466.07 1553.99 456.521 1547 455.228C1532.32 452.516 1514.93 455 1500 455C1492.64 455 1483.12 453.41 1476.04 455.573z"/>
<path style="fill:#ff590c; stroke:none;" d="M1889 456L1890 457L1889 456z"/>
<path style="fill:#ff7b09; stroke:none;" d="M1471 458L1472 459L1471 458z"/>
<path style="fill:#ff590c; stroke:none;" d="M1478 460L1479 461L1478 460z"/>
<path style="fill:#010101; stroke:none;" d="M1476 461C1477.29 468.454 1488.18 466 1494 466L1533 466C1536.42 466 1544.76 467.485 1547.17 464.441C1549.32 461.719 1544.84 460.324 1542.98 460.109C1536.15 459.319 1528.88 460 1522 460L1503 460C1494.02 460 1484.85 459.356 1476 461z"/>
<path style="fill:#ff590c; stroke:none;" d="M1470 461L1471 462L1470 461z"/>
<path style="fill:#ff7b09; stroke:none;" d="M1406 462L1407 463L1406 462z"/>
<path style="fill:#ff0101; stroke:none;" d="M1548 462L1549 463L1548 462M1617 463L1618 464L1617 463z"/>
<path style="fill:#ff7b09; stroke:none;" d="M1891 463L1892 464L1891 463M1617 464L1617 783L1618 783L1618 558L1618 493L1617 464M1477 465L1478 466L1477 465z"/>
<path style="fill:#ff590c; stroke:none;" d="M1894 474L1895 475L1894 474z"/>
<path style="fill:#ff7b09; stroke:none;" d="M1895 478L1896 479L1895 478M1896 482L1897 483L1896 482z"/>
<path style="fill:#ff6d29; stroke:none;" d="M1249 522L1248 522C1248 495.606 1225.97 492.999 1204 493C1171.49 493.002 1135.14 498.505 1105 511.012C1091.96 516.421 1077.17 524.555 1073 539L1072 539C1070.38 519.13 1047.44 475.906 1025.53 504.004C1022.95 507.312 1021.32 511.117 1019.81 515C1005.03 553.156 1012 601.864 1012 642L1011 642C1006.47 622.435 998.427 602.923 991.692 584C984.389 563.481 978.101 542.256 967.766 523C960.388 509.253 948.702 492.001 931 493.094C911.847 494.276 903.18 516.565 897.692 532C882.939 573.49 878.943 623.263 880.015 667C880.576 689.924 882.717 718.286 895.548 737.999C904.261 751.386 923.419 753.001 933.468 739.996C940.738 730.586 941.805 717.363 943.282 706C946.586 680.568 947 655.623 947 630L948 630C950.383 643.851 958.17 658.13 963.719 671C973.332 693.297 981.085 717.72 997.87 735.911C1010.15 749.215 1031.23 760.109 1046.83 744.815C1060.39 731.516 1065.48 709.87 1069.42 692C1079.68 645.502 1078.71 599.951 1075 553C1090.98 567.576 1111.21 564.408 1131 564C1131 598.702 1130.58 633.325 1131 668C1131.23 687.499 1129.81 707.676 1132.58 727C1133.9 736.188 1136.06 745.742 1142.33 752.96C1151.21 763.186 1168.04 762.464 1176.32 751.985C1188.34 736.772 1185.01 715.807 1185 698C1184.99 664.458 1184.61 631.509 1186.91 598C1187.64 587.323 1185.87 570.896 1190.56 561.144C1192.72 556.67 1200.74 556.13 1205 554.656C1216.58 550.649 1227.05 545.122 1237 538C1229.97 554.883 1222.1 571.425 1228.54 590C1237.37 615.432 1268.55 634.645 1270.81 662C1271.68 672.573 1263.92 681.993 1257 689C1243.68 702.48 1221.03 717.817 1221.03 739C1221.03 761.434 1245.39 766.442 1263 760.641C1289.4 751.945 1312.09 724.392 1323.68 700C1335.36 675.428 1337.38 648.039 1320.84 625C1310.7 610.868 1285.82 594.862 1288.45 575C1290.84 557.013 1306.83 546.046 1321 537.053C1333.74 528.972 1345.06 519.591 1340.51 503C1336.53 488.494 1322.67 483.68 1309 484.015C1287.86 484.532 1257.97 502.666 1249 522z"/>
<path style="fill:#ff0101; stroke:none;" d="M1319 484L1320 485L1319 484z"/>
<path style="fill:#ff590c; stroke:none;" d="M1295 486L1296 487L1295 486M1897 486L1898 487L1897 486z"/>
<path style="fill:#ff7b09; stroke:none;" d="M1292 487L1293 488L1292 487z"/>
<path style="fill:#ff6d29; stroke:none;" d="M1421 487L1421 754L1603 754L1603 487L1421 487M444 687C443.933 678.953 440.004 666.429 444.938 659.225C448.493 654.035 459.358 652.534 465 650.424C480.298 644.704 503.826 637.756 512.786 623C520.78 609.836 515.703 588.64 499 586.171C479.442 583.279 460.233 591.804 443 600L448 569C456.555 567.48 465.04 562.715 473 559.281C489.746 552.056 511.63 544.741 524.895 531.816C536.72 520.293 532.96 499.191 519 491.086C504.62 482.737 479.117 490.948 464 494.349C446.499 498.288 420.739 501.556 407.185 514.329C397.195 523.742 393.248 541.159 390.13 554C381.374 590.054 380.325 631.171 383.83 668C385.709 687.744 380.601 721.963 396.04 736.907C426.126 766.027 463.091 749.201 495 733.247C506.399 727.547 523.022 720.476 529.633 708.999C540.488 690.158 524.82 668.09 504 670.171C483.15 672.254 464.449 683.98 444 687z"/>
<path style="fill:#ff0101; stroke:none;" d="M512 488L513 489L512 488z"/>
<path style="fill:#ff7b09; stroke:none;" d="M831 488L832 489L831 488z"/>
<path style="fill:#ff6d29; stroke:none;" d="M777 687C775.947 678.678 772.348 667.016 777.303 659.278C780.743 653.907 792.315 652.331 798 650.308C813.793 644.687 838.015 636.92 846.164 621C853.114 607.424 847.186 588.511 831 586.171C812.493 583.496 791.803 590.778 776 600C776.326 592.404 776.842 576.422 781.738 570.394C785.573 565.673 794.609 564.118 800 561.694C818.43 553.41 852.512 544.295 862.161 525C871.703 505.916 854.088 486.784 835 488.089C812.486 489.63 789.577 495.238 768 501.576C758.152 504.468 746.505 507.589 739.104 515.093C728.609 525.734 725.206 542.983 721.884 557C712.343 597.259 715.171 639.182 716.961 680C717.6 694.591 715.72 718.218 723.713 730.996C748.475 770.585 799.03 748.145 830 731.833C841.257 725.904 857.32 719.169 863.08 707C869.727 692.959 861.236 672.214 845 670.185C822.549 667.38 798.41 682.047 777 687z"/>
<path style="fill:#ff7b09; stroke:none;" d="M1329 488L1330 489L1329 488M1927 488L1928 489L1927 488M491 489L492 490L491 489z"/>
<path style="fill:#ff590c; stroke:none;" d="M515 489L516 490L515 489z"/>
<path style="fill:#ff7b09; stroke:none;" d="M811 491L812 492L811 491M473 492L474 493L473 492M853 492L854 493L853 492z"/>
<path style="fill:#010101; stroke:none;" d="M1427 492L1427 748L1598 748L1598 492L1427 492z"/>
<path style="fill:#ff6d29; stroke:none;" d="M624 633C616.915 625.675 616.035 610.633 613.627 601C607.212 575.344 602.492 548.694 592.797 524C589.032 514.411 584.695 502.293 575.91 496.109C565.322 488.656 551.136 494.389 545.413 505.001C539.028 516.84 541 532.066 541 545C541 565.745 546.106 585.875 550.576 606C557.913 639.039 566.796 671.638 579.603 703C585.588 717.654 596.688 745.713 614 749.606C635.69 754.485 649.015 728.971 656.742 713C667.399 690.971 673.149 667.049 681.003 644C690.579 615.894 701.585 588.134 707.789 559C711.147 543.234 719.736 507.49 701.985 497.089C686.051 487.755 672.277 507.113 665.77 519C653.108 542.133 644.323 567.03 636 592C631.597 605.208 625.864 619.166 624 633z"/>
<path style="fill:#ff0101; stroke:none;" d="M571 493L572 494L571 493z"/>
<path style="fill:#ff7b09; stroke:none;" d="M927 493L928 494L927 493z"/>
<path style="fill:#ff590c; stroke:none;" d="M937 493L938 494L937 493M463 494L464 495L463 494z"/>
<path style="fill:#ff7b09; stroke:none;" d="M523 494L524 495L523 494M573 494L574 495L573 494z"/>
<path style="fill:#ff590c; stroke:none;" d="M1181 494L1182 495L1181 494z"/>
<path style="fill:#ff0101; stroke:none;" d="M1336 494L1337 495L1336 494M524 495L525 496L524 495z"/>
<path style="fill:#ff7b09; stroke:none;" d="M698 495L699 496L698 495M791 495L792 496L791 495z"/>
<path style="fill:#ff590c; stroke:none;" d="M943 495L944 496L943 495M1043 495L1044 496L1043 495z"/>
<path style="fill:#ff7b09; stroke:none;" d="M576 496L577 497L576 496M685 496L686 497L685 496z"/>
<path style="fill:#ff0101; stroke:none;" d="M945 496L946 497L945 496M1034 496L1035 497L1034 496z"/>
<path style="fill:#ff7b09; stroke:none;" d="M1164 496L1165 497L1164 496M1275 496L1276 497L1275 496z"/>
<path style="fill:#ff590c; stroke:none;" d="M551 497L552 498L551 497z"/>
<path style="fill:#ff7b09; stroke:none;" d="M1032 497L1033 498L1032 497z"/>
<path style="fill:#ff0101; stroke:none;" d="M1338 497L1339 498L1338 497M948 498L949 499L948 498z"/>
<path style="fill:#ff7b09; stroke:none;" d="M1237 498L1238 499L1237 498M549 499L550 500L549 499M579 499L580 500L579 499M1339 499L1340 500L1339 499M439 500L440 501L439 500z"/>
<path style="fill:#ff0101; stroke:none;" d="M548 500L549 501L548 500z"/>
<path style="fill:#ff7b09; stroke:none;" d="M1240 500L1241 501L1240 500z"/>
<path style="fill:#ff590c; stroke:none;" d="M768 501L769 502L768 501z"/>
<path style="fill:#ff7b09; stroke:none;" d="M1136 501L1137 502L1136 501M1340 502L1341 503L1340 502z"/>
<path style="fill:#ff590c; stroke:none;" d="M912 503L913 504L912 503z"/>
<path style="fill:#ff0101; stroke:none;" d="M1057 503L1058 504L1057 503z"/>
<path style="fill:#ff590c; stroke:none;" d="M759 504L760 505L759 504M862 504L863 505L862 504z"/>
<path style="fill:#ff0101; stroke:none;" d="M1124 504L1125 505L1124 504z"/>
<path style="fill:#ff7b09; stroke:none;" d="M1901 504L1902 505L1901 504M530 505L531 506L530 505M756 505L757 506L756 505z"/>
<path style="fill:#ff590c; stroke:none;" d="M421 506L422 507L421 506z"/>
<path style="fill:#ff0101; stroke:none;" d="M956 506L957 507L956 506z"/>
<path style="fill:#ff7b09; stroke:none;" d="M673 507L674 508L673 507z"/>
<path style="fill:#ff0101; stroke:none;" d="M909 507L910 508L909 507z"/>
<path style="fill:#ff7b09; stroke:none;" d="M1060 507L1061 508L1060 507M1261 507L1262 508L1261 507z"/>
<path style="fill:#ff0101; stroke:none;" d="M1341 507L1342 508L1341 507z"/>
<path style="fill:#ff7b09; stroke:none;" d="M1260 508L1261 509L1260 508z"/>
<path style="fill:#ff590c; stroke:none;" d="M1259 509L1260 510L1259 509M1902 509L1903 510L1902 509z"/>
<path style="fill:#ff7b09; stroke:none;" d="M710 510L711 511L710 510z"/>
<path style="fill:#ff590c; stroke:none;" d="M743 511L744 512L743 511M409 512L410 513L409 512M1063 512L1064 513L1063 512M1256 512L1257 513L1256 512M1020 513L1021 514L1020 513z"/>
<path style="fill:#ff7b09; stroke:none;" d="M1341 513L1342 514L1341 513M1932 513L1933 514L1932 513z"/>
<path style="fill:#ff590c; stroke:none;" d="M739 514L740 515L739 514z"/>
<path style="fill:#ff7b09; stroke:none;" d="M962 514L963 515L962 514M1064 514L1065 515L1064 514M1254 514L1255 515L1254 514z"/>
<path style="fill:#ff0101; stroke:none;" d="M711 515L712 516L711 515z"/>
<path style="fill:#ff7b09; stroke:none;" d="M738 515L739 516L738 515z"/>
<path style="fill:#ff0101; stroke:none;" d="M1065 516L1066 517L1065 516z"/>
<path style="fill:#ff7b09; stroke:none;" d="M541 518L542 519L541 518z"/>
<path style="fill:#ff0101; stroke:none;" d="M590 518L591 519L590 518z"/>
<path style="fill:#ff7b09; stroke:none;" d="M1339 520L1340 521L1339 520M734 521L735 522L734 521z"/>
<path style="fill:#ff0101; stroke:none;" d="M1067 521L1068 522L1067 521z"/>
<path style="fill:#ff590c; stroke:none;" d="M1248 521L1249 522L1248 521z"/>
<path style="fill:#ff0101; stroke:none;" d="M1338 522L1339 523L1338 522z"/>
<path style="fill:#ff7b09; stroke:none;" d="M592 523L593 524L592 523M663 523L664 524L663 523M400 524L401 525L400 524z"/>
<path style="fill:#ff0101; stroke:none;" d="M968 524L969 525L968 524z"/>
<path style="fill:#ff7b09; stroke:none;" d="M1068 524L1069 525L1068 524z"/>
<path style="fill:#ff0101; stroke:none;" d="M1082 524L1083 525L1082 524z"/>
<path style="fill:#ff590c; stroke:none;" d="M1081 525L1082 526L1081 525M399 526L400 527L399 526z"/>
<path style="fill:#ff7b09; stroke:none;" d="M969 526L970 527L969 526z"/>
<path style="fill:#ff590c; stroke:none;" d="M899 527L900 528L899 527z"/>
<path style="fill:#ff7b09; stroke:none;" d="M1069 527L1070 528L1069 527M398 528L399 529L398 528z"/>
<path style="fill:#ff590c; stroke:none;" d="M1078 528L1079 529L1078 528z"/>
<path style="fill:#ff0101; stroke:none;" d="M859 529L860 530L859 529z"/>
<path style="fill:#ff590c; stroke:none;" d="M858 530L859 531L858 530z"/>
<path style="fill:#ff7b09; stroke:none;" d="M971 530L972 531L971 530z"/>
<path style="fill:#ff0101; stroke:none;" d="M729 531L730 532L729 531z"/>
<path style="fill:#ff7b09; stroke:none;" d="M857 531L858 532L857 531z"/>
<path style="fill:#ff590c; stroke:none;" d="M1015 531L1016 532L1015 531z"/>
<path style="fill:#ff0101; stroke:none;" d="M1329 531L1330 532L1329 531z"/>
<path style="fill:#ff7b09; stroke:none;" d="M1935 531L1936 532L1935 531M972 532L973 533L972 532z"/>
<path style="fill:#ff0101; stroke:none;" d="M1906 532L1907 533L1906 532z"/>
<path style="fill:#ff7b09; stroke:none;" d="M658 533L659 534L658 533z"/>
<path style="fill:#ff0101; stroke:none;" d="M521 534L522 535L521 534M657 535L658 536L657 535z"/>
<path style="fill:#ff7b09; stroke:none;" d="M518 536L519 537L518 536z"/>
<path style="fill:#ff590c; stroke:none;" d="M711 536L712 537L711 536z"/>
<path style="fill:#ff7b09; stroke:none;" d="M1321 536L1322 537L1321 536z"/>
<path style="fill:#010101; stroke:none;" d="M1237 537L1238 538L1237 537z"/>
<path style="fill:#ff0101; stroke:none;" d="M1318 538L1319 539L1318 538M1936 538L1937 539L1936 538z"/>
<path style="fill:#ff7b09; stroke:none;" d="M513 539L514 540L513 539z"/>
<path style="fill:#ff0101; stroke:none;" d="M975 539L976 540L975 539M1234 539L1235 540L1234 539z"/>
<path style="fill:#ff590c; stroke:none;" d="M598 541L599 542L598 541z"/>
<path style="fill:#ff0101; stroke:none;" d="M1235 541L1236 542L1235 541M894 542L895 543L894 542z"/>
<path style="fill:#ff590c; stroke:none;" d="M838 543L839 544L838 543z"/>
<path style="fill:#ff0101; stroke:none;" d="M1234 543L1235 544L1234 543M653 544L654 545L653 544z"/>
<path style="fill:#ff590c; stroke:none;" d="M1013 545L1014 546L1013 545z"/>
<path style="fill:#ff0101; stroke:none;" d="M1225 545L1226 546L1225 545z"/>
<path style="fill:#ff7b09; stroke:none;" d="M1223 546L1224 547L1223 546z"/>
<path style="fill:#ff0101; stroke:none;" d="M978 547L979 548L978 547M1305 547L1306 548L1305 547z"/>
<path style="fill:#ff6d29; stroke:none;" d="M1473.05 547.743C1465.37 550.876 1466.12 575.332 1468.74 581.985C1470.32 585.974 1474.73 588.783 1478.98 587.242C1489.63 583.389 1489.22 541.156 1473.05 547.743M1508.06 548.028C1501.44 551.64 1502.13 576.554 1504.74 582.956C1506.54 587.372 1511.77 588.915 1515.89 586.681C1522.46 583.12 1522.06 557.502 1519.26 551.189C1517.47 547.161 1511.75 546.013 1508.06 548.028M1544.19 547.742C1534.39 552.057 1535.55 593.154 1550.96 587.103C1558.63 584.09 1558 558.775 1555.4 552.019C1553.73 547.685 1548.37 545.901 1544.19 547.742z"/>
<path style="fill:#ff7b09; stroke:none;" d="M600 548L601 549L600 548z"/>
<path style="fill:#ff0101; stroke:none;" d="M1506 548L1507 549L1506 548z"/>
<path style="fill:#ff7b09; stroke:none;" d="M1517 548L1518 549L1517 548M651 549L652 550L651 549M1217 549L1218 550L1217 549z"/>
<path style="fill:#ff0101; stroke:none;" d="M1505 549L1506 550L1505 549z"/>
<path style="fill:#ff7b09; stroke:none;" d="M1541 549L1542 550L1541 549z"/>
<path style="fill:#ff590c; stroke:none;" d="M723 550L724 551L723 550M824 550L825 551L824 550M892 550L893 551L892 550z"/>
<path style="fill:#ff7b09; stroke:none;" d="M1215 550L1216 551L1215 550M822 551L823 552L822 551M820 552L821 553L820 552M1210 552L1211 553L1210 552z"/>
<path style="fill:#ff590c; stroke:none;" d="M1468 552L1469 553L1468 552z"/>
<path style="fill:#ff7b09; stroke:none;" d="M1484 552L1485 553L1484 552z"/>
<path style="fill:#ff0101; stroke:none;" d="M722 554L723 555L722 554M1076 554L1077 555L1076 554M1539 554L1540 555L1539 554M1909 554L1910 555L1909 554M1938 554L1939 555L1938 554M481 555L482 556L481 555z"/>
<path style="fill:#ff7b09; stroke:none;" d="M811 556L812 557L811 556z"/>
<path style="fill:#ff590c; stroke:none;" d="M1075 557L1076 558L1075 557M1080 557L1081 558L1080 557z"/>
<path style="fill:#ff0101; stroke:none;" d="M1195 557L1196 558L1195 557z"/>
<path style="fill:#ff590c; stroke:none;" d="M1295 557L1296 558L1295 557z"/>
<path style="fill:#ff7b09; stroke:none;" d="M474 558L475 559L474 558z"/>
<path style="fill:#ff590c; stroke:none;" d="M1191 558L1192 559L1191 558M804 559L805 560L804 559M467 561L468 562L467 561z"/>
<path style="fill:#ff7b09; stroke:none;" d="M646 562L647 563L646 562M1910 563L1911 564L1910 563z"/>
<path style="fill:#ff590c; stroke:none;" d="M1103 564L1104 565L1103 564M1939 564L1940 565L1939 564z"/>
<path style="fill:#ff7b09; stroke:none;" d="M455 566L456 567L455 566z"/>
<path style="fill:#ff6d29; stroke:none;" d="M1488 566C1488 571.832 1489.34 579.639 1486.54 584.96C1481.79 593.991 1470.85 593.266 1465.86 584.996C1462.81 579.941 1464 572.662 1464 567C1456.25 569.236 1449.81 574.722 1448.33 583C1443.74 608.668 1448 638.897 1448 665C1448 676.361 1448.92 688.582 1462 692.362C1470.09 694.699 1480.62 693 1489 693L1543 693C1552.92 693 1563.55 694.54 1570.61 685.957C1577.17 677.97 1575 665.616 1575 656L1575 606C1575 598.057 1576.32 588.756 1574.47 581C1572.67 573.459 1566.93 569.404 1560 567C1560 572.656 1561.2 579.948 1558.14 584.995C1553.17 593.198 1542.15 593.889 1537.46 584.96C1534.66 579.639 1536 571.832 1536 566L1524 566C1524 572.219 1525.46 580.471 1521.85 585.907C1516.13 594.534 1504.05 592.776 1500.7 582.996C1498.96 577.912 1500 571.317 1500 566L1488 566z"/>
<path style="fill:#ff590c; stroke:none;" d="M1561 567L1562 568L1561 567M986 569L987 570L986 569M1226 569L1227 570L1226 569z"/>
<path style="fill:#ff0101; stroke:none;" d="M643 570L644 571L643 570z"/>
<path style="fill:#ff7b09; stroke:none;" d="M1567 570L1568 571L1567 570z"/>
<path style="fill:#ff590c; stroke:none;" d="M987 572L988 573L987 572z"/>
<path style="fill:#ff7b09; stroke:none;" d="M642 573L643 574L642 573M447 574L448 575L447 574z"/>
<path style="fill:#ff0101; stroke:none;" d="M1288 574L1289 575L1288 574z"/>
<path style="fill:#ff7b09; stroke:none;" d="M1571 574L1572 575L1571 574z"/>
<path style="fill:#ff590c; stroke:none;" d="M1077 575L1078 576L1077 575z"/>
<path style="fill:#ff7b09; stroke:none;" d="M1451 575L1452 576L1451 575M779 576L780 577L779 576z"/>
<path style="fill:#ff0101; stroke:none;" d="M702 579L703 580L702 579z"/>
<path style="fill:#ff590c; stroke:none;" d="M1539 579L1540 580L1539 579z"/>
<path style="fill:#ff7b09; stroke:none;" d="M385 581L386 582L385 581M545 583L546 584L545 583z"/>
<path style="fill:#ff0101; stroke:none;" d="M1504 583L1505 584L1504 583z"/>
<path style="fill:#ff7b09; stroke:none;" d="M1523 583L1524 584L1523 583z"/>
<path style="fill:#ff590c; stroke:none;" d="M1540 583L1541 584L1540 583z"/>
<path style="fill:#ff0101; stroke:none;" d="M445 585L446 586L445 585z"/>
<path style="fill:#ff7b09; stroke:none;" d="M823 585L824 586L823 585z"/>
<path style="fill:#ff0101; stroke:none;" d="M825 585L826 586L825 585z"/>
<path style="fill:#ff590c; stroke:none;" d="M1470 585L1471 586L1470 585z"/>
<path style="fill:#ff7b09; stroke:none;" d="M1482 585L1483 586L1482 585z"/>
<path style="fill:#ff0101; stroke:none;" d="M1558 585L1559 586L1558 585z"/>
<path style="fill:#ff7b09; stroke:none;" d="M480 586L481 587L480 586M833 586L834 587L833 586z"/>
<path style="fill:#ff590c; stroke:none;" d="M992 586L993 587L992 586z"/>
<path style="fill:#ff0101; stroke:none;" d="M1227 586L1228 587L1227 586z"/>
<path style="fill:#ff590c; stroke:none;" d="M836 587L837 588L836 587z"/>
<path style="fill:#ff7b09; stroke:none;" d="M1485 587L1486 588L1485 587z"/>
<path style="fill:#ff590c; stroke:none;" d="M1514 587L1515 588L1514 587M1538 587L1539 588L1538 587z"/>
<path style="fill:#ff0101; stroke:none;" d="M1550 587L1551 588L1550 587z"/>
<path style="fill:#ff590c; stroke:none;" d="M838 588L839 589L838 588z"/>
<path style="fill:#ff0101; stroke:none;" d="M1503 588L1504 589L1503 588z"/>
<path style="fill:#ff590c; stroke:none;" d="M1520 588L1521 589L1520 588z"/>
<path style="fill:#ff0101; stroke:none;" d="M1912 588L1913 589L1912 588M699 589L700 590L699 589M444 591L445 592L444 591z"/>
<path style="fill:#ff7b09; stroke:none;" d="M795 591L796 592L795 591z"/>
<path style="fill:#ff590c; stroke:none;" d="M1472 591L1473 592L1472 591z"/>
<path style="fill:#ff0101; stroke:none;" d="M1479 591L1480 592L1479 591M1508 591L1509 592L1508 591z"/>
<path style="fill:#ff590c; stroke:none;" d="M1515 591L1516 592L1515 591M547 592L548 593L547 592z"/>
<path style="fill:#ff7b09; stroke:none;" d="M611 592L612 593L611 592z"/>
<path style="fill:#ff0101; stroke:none;" d="M1229 592L1230 593L1229 592M844 593L845 594L844 593M1130 593L1131 594L1130 593z"/>
<path style="fill:#ff7b09; stroke:none;" d="M455 594L456 595L455 594M1130 594L1131 595L1130 594z"/>
<path style="fill:#ff590c; stroke:none;" d="M1230 594L1231 595L1230 594M716 595L717 596L716 595M1130 595L1131 596L1130 595z"/>
<path style="fill:#ff7b09; stroke:none;" d="M884 596L885 597L884 596M1130.33 596.667L1130.67 597.333L1130.33 596.667M448 597L449 598L448 597M1078 597L1079 598L1078 597M1296 597L1297 598L1296 597z"/>
<path style="fill:#ff590c; stroke:none;" d="M1232 598L1233 599L1232 598M443 599L444 600L443 599z"/>
<path style="fill:#ff7b09; stroke:none;" d="M444 599L445 600L444 599z"/>
<path style="fill:#ff0101; stroke:none;" d="M1186 601L1187 602L1186 601M1235 603L1236 604L1235 603z"/>
<path style="fill:#ff590c; stroke:none;" d="M383 604L384 605L383 604M848 604L849 605L848 604M1302 604L1303 605L1302 604z"/>
<path style="fill:#ff0101; stroke:none;" d="M1303 605L1304 606L1303 605z"/>
<path style="fill:#ff7b09; stroke:none;" d="M630 609L631 610L630 609M1239 609L1240 610L1239 609M1078 610L1079 611L1078 610z"/>
<path style="fill:#ff590c; stroke:none;" d="M1241 612L1242 613L1241 612z"/>
<path style="fill:#010101; stroke:none;" d="M1467.23 613.028C1460.72 617.008 1464 636.313 1464 643C1464 649.877 1461.17 665.134 1465.74 670.682C1468.63 674.18 1475 673 1479 673L1508 673C1511.75 673 1517.43 674.017 1520.77 671.972C1527.28 667.992 1524 648.687 1524 642C1524 635.123 1526.83 619.866 1522.26 614.318C1519.37 610.82 1513 612 1509 612L1480 612C1476.25 612 1470.57 610.983 1467.23 613.028M1541.23 612.742C1536.45 614.975 1536.5 628.993 1539.6 632.566C1542.63 636.055 1551.97 635.92 1555.94 634.258C1561.2 632.058 1561.87 618.659 1558.97 614.318C1556.51 610.621 1544.87 611.043 1541.23 612.742z"/>
<path style="fill:#ff7b09; stroke:none;" d="M715 613L716 614L715 613M882 613L883 614L882 613M1523 615L1524 616L1523 615M1913.33 615.667L1913.67 616.333L1913.33 615.667M690 616L691 617L690 616z"/>
<path style="fill:#ff590c; stroke:none;" d="M617 617L618 618L617 617z"/>
<path style="fill:#ff0101; stroke:none;" d="M1185 617L1186 618L1185 617z"/>
<path style="fill:#ff7b09; stroke:none;" d="M1560 617L1560 630L1561 630L1560 617M514 619L515 620L514 619z"/>
<path style="fill:#ff0101; stroke:none;" d="M689 619L690 620L689 619M1246 619L1247 620L1246 619z"/>
<path style="fill:#ff7b09; stroke:none;" d="M1316 619L1317 620L1316 619z"/>
<path style="fill:#ff590c; stroke:none;" d="M846 620L847 621L846 620z"/>
<path style="fill:#ff0101; stroke:none;" d="M626 622L627 623L626 622z"/>
<path style="fill:#ff7b09; stroke:none;" d="M1249 623L1250 624L1249 623z"/>
<path style="fill:#ff590c; stroke:none;" d="M1319 623L1320 624L1319 623M619 624L620 625L619 624z"/>
<path style="fill:#ff7b09; stroke:none;" d="M1005 625L1006 626L1005 625z"/>
<path style="fill:#ff6d29; stroke:none;" d="M1490 643C1486.54 639.384 1473.46 628.392 1473.75 642C1473.82 645.409 1477.39 648.569 1479.41 651C1481.5 653.509 1484.44 658.605 1488.04 658.963C1491.2 659.277 1493.98 655.939 1496 653.985C1501.73 648.44 1510.51 642.027 1514.34 635C1516.35 631.307 1512.42 624.719 1507.91 625.752C1504.03 626.639 1500.67 631.329 1498 634C1495.12 636.882 1492.34 639.672 1490 643z"/>
<path style="fill:#ff0101; stroke:none;" d="M842 626L843 627L842 626z"/>
<path style="fill:#ff590c; stroke:none;" d="M1511 626L1512 627L1511 626z"/>
<path style="fill:#ff0101; stroke:none;" d="M841 627L842 628L841 627z"/>
<path style="fill:#ff7b09; stroke:none;" d="M1252 627L1253 628L1252 627M1512 627L1513 628L1512 627z"/>
<path style="fill:#ff0101; stroke:none;" d="M840 628L841 629L840 628z"/>
<path style="fill:#ff7b09; stroke:none;" d="M1006 628L1007 629L1006 628z"/>
<path style="fill:#ff0101; stroke:none;" d="M1513 628L1514 629L1513 628z"/>
<path style="fill:#ff590c; stroke:none;" d="M624 629L625 630L624 629z"/>
<path style="fill:#ff7b09; stroke:none;" d="M1913.33 630.667L1913.67 631.333L1913.33 630.667z"/>
<path style="fill:#ff0101; stroke:none;" d="M1077 631L1078 632L1077 631z"/>
<path style="fill:#ff7b09; stroke:none;" d="M1255 631L1256 632L1255 631M1559 632L1560 633L1559 632M1558 633L1559 634L1558 633M499 634L500 635L499 634z"/>
<path style="fill:#ff590c; stroke:none;" d="M1556 634L1557 635L1556 634z"/>
<path style="fill:#ff7b09; stroke:none;" d="M949 635L950 636L949 635z"/>
<path style="fill:#ff590c; stroke:none;" d="M826 637L827 638L826 637z"/>
<path style="fill:#ff7b09; stroke:none;" d="M1260 638L1261 639L1260 638z"/>
<path style="fill:#ff590c; stroke:none;" d="M1485 638L1486 639L1485 638z"/>
<path style="fill:#ff0101; stroke:none;" d="M682 639L683 640L682 639z"/>
<path style="fill:#ff7b09; stroke:none;" d="M1473 639L1474 640L1473 639z"/>
<path style="fill:#ff0101; stroke:none;" d="M488 640L489 641L488 640M486 641L487 642L486 641M1262 641L1263 642L1262 641z"/>
<path style="fill:#ff7b09; stroke:none;" d="M1012 642L1013 643L1012 642M880 643L881 644L880 643z"/>
<path style="fill:#010101; stroke:none;" d="M1012.33 643.667L1012.67 644.333L1012.33 643.667z"/>
<path style="fill:#ff7b09; stroke:none;" d="M1473 643L1474 644L1473 643z"/>
<path style="fill:#ff0101; stroke:none;" d="M812 644L813 645L812 644z"/>
<path style="fill:#ff7b09; stroke:none;" d="M1184 644L1185 645L1184 644M1330 644L1331 645L1330 644z"/>
<path style="fill:#ff0101; stroke:none;" d="M1184 645L1185 646L1184 645z"/>
<path style="fill:#ff7b09; stroke:none;" d="M802 648L803 649L802 648M561 649L562 650L561 649z"/>
<path style="fill:#ff590c; stroke:none;" d="M1267 649L1268 650L1267 649z"/>
<path style="fill:#ff7b09; stroke:none;" d="M1478 649L1479 650L1478 649M464 650L465 651L464 650z"/>
<path style="fill:#ff0101; stroke:none;" d="M1542 650L1543 651L1542 650z"/>
<path style="fill:#010101; stroke:none;" d="M1543.02 650.573C1536.8 652.438 1535.84 665.711 1539.18 670.566C1541.72 674.265 1553.11 674.028 1556.85 672.397C1561.63 670.31 1561.44 655.941 1558.4 652.434C1555.35 648.93 1547.08 649.355 1543.02 650.573z"/>
<path style="fill:#ff0101; stroke:none;" d="M678 651L679 652L678 651z"/>
<path style="fill:#ff7b09; stroke:none;" d="M1558 651L1559 652L1558 651M1332 652L1333 653L1332 652M1559 652L1560 653L1559 652z"/>
<path style="fill:#ff590c; stroke:none;" d="M677 654L678 655L677 654z"/>
<path style="fill:#ff7b09; stroke:none;" d="M785 654L786 655L785 654M715 655L716 656L715 655M957 655L958 656L957 655z"/>
<path style="fill:#ff0101; stroke:none;" d="M1483 655L1484 656L1483 655z"/>
<path style="fill:#ff590c; stroke:none;" d="M1560 655L1561 656L1560 655z"/>
<path style="fill:#ff0101; stroke:none;" d="M447 656L448 657L447 656z"/>
<path style="fill:#ff7b09; stroke:none;" d="M1560 656L1560 668L1561 668L1560 656z"/>
<path style="fill:#ff0101; stroke:none;" d="M1912 658L1913 659L1912 658z"/>
<path style="fill:#ff590c; stroke:none;" d="M1489 659L1490 660L1489 659z"/>
<path style="fill:#ff7b09; stroke:none;" d="M959 660L960 661L959 660M1130.33 661.667L1130.67 662.333L1130.33 661.667M443 662L444 663L443 662M565 663L566 664L565 663M674 664L675 665L674 664M775 664L776 665L775 664z"/>
<path style="fill:#ff590c; stroke:none;" d="M1560 668L1561 669L1560 668z"/>
<path style="fill:#ff7b09; stroke:none;" d="M1464 669L1465 670L1464 669M1523 669L1524 670L1523 669M514 670L515 671L514 670z"/>
<path style="fill:#ff590c; stroke:none;" d="M1538 670L1539 671L1538 670z"/>
<path style="fill:#ff7b09; stroke:none;" d="M1940 670L1941 671L1940 670M517 671L518 672L517 671z"/>
<path style="fill:#ff590c; stroke:none;" d="M829 671L830 672L829 671z"/>
<path style="fill:#ff7b09; stroke:none;" d="M519 672L520 673L519 672M825 672L826 673L825 672z"/>
<path style="fill:#ff0101; stroke:none;" d="M880 672L881 673L880 672z"/>
<path style="fill:#ff7b09; stroke:none;" d="M964 672L965 673L964 672z"/>
<path style="fill:#ff590c; stroke:none;" d="M1540 672L1541 673L1540 672z"/>
<path style="fill:#ff7b09; stroke:none;" d="M821 673L822 674L821 673M1332 674L1333 675L1332 674M814 675L815 676L814 675z"/>
<path style="fill:#ff590c; stroke:none;" d="M1072 675L1073 676L1072 675z"/>
<path style="fill:#ff7b09; stroke:none;" d="M478 676L479 677L478 676M775 676L776 677L775 676M1184 677L1185 678L1184 677M804 678L805 679L804 678M527 679L528 680L527 679z"/>
<path style="fill:#ff590c; stroke:none;" d="M801 679L802 680L801 679M967 679L968 680L967 679M1265 679L1266 680L1265 679z"/>
<path style="fill:#ff7b09; stroke:none;" d="M798 680L799 681L798 680z"/>
<path style="fill:#ff590c; stroke:none;" d="M795 681L796 682L795 681z"/>
<path style="fill:#ff0101; stroke:none;" d="M1071 681L1072 682L1071 681M384 682L385 683L384 682M529 682L530 683L529 682M1330 682L1331 683L1330 682z"/>
<path style="fill:#ff590c; stroke:none;" d="M1939 682L1940 683L1939 682z"/>
<path style="fill:#ff7b09; stroke:none;" d="M1262 683L1263 684L1262 683M1910 683L1911 684L1910 683z"/>
<path style="fill:#ff0101; stroke:none;" d="M530 684L531 685L530 684M572 684L573 685L572 684z"/>
<path style="fill:#ff7b09; stroke:none;" d="M969 684L970 685L969 684M667 685L668 686L667 685M1329 685L1330 686L1329 685M444 686L445 687L444 686z"/>
<path style="fill:#ff0101; stroke:none;" d="M881 686L882 687L881 686M945 687L946 688L945 687M532 690L533 691L532 690M717 690L718 691L717 690M1565 690L1566 691L1565 690z"/>
<path style="fill:#ff7b09; stroke:none;" d="M1069 691L1070 692L1069 691M1459 691L1460 692L1459 691z"/>
<path style="fill:#ff590c; stroke:none;" d="M1563 691L1564 692L1563 691z"/>
<path style="fill:#ff0101; stroke:none;" d="M575 692L576 693L575 692M1909 692L1910 693L1909 692M1938 692L1939 693L1938 692z"/>
<path style="fill:#ff590c; stroke:none;" d="M944 695L945 696L944 695z"/>
<path style="fill:#ff7b09; stroke:none;" d="M1325 695L1326 696L1325 695z"/>
<path style="fill:#ff0101; stroke:none;" d="M1067 700L1068 701L1067 700M661 701L662 702L661 701z"/>
<path style="fill:#ff7b09; stroke:none;" d="M883 701L884 702L883 701z"/>
<path style="fill:#ff0101; stroke:none;" d="M1244 701L1245 702L1244 701z"/>
<path style="fill:#ff7b09; stroke:none;" d="M1243 702L1244 703L1243 702z"/>
<path style="fill:#ff590c; stroke:none;" d="M718 703L719 704L718 703z"/>
<path style="fill:#ff0101; stroke:none;" d="M943 704L944 705L943 704z"/>
<path style="fill:#ff7b09; stroke:none;" d="M1320 705L1321 706L1320 705z"/>
<path style="fill:#ff590c; stroke:none;" d="M1185 706L1186 707L1185 706M386 707L387 708L386 707M1131 707L1132 708L1131 707z"/>
<path style="fill:#ff7b09; stroke:none;" d="M1185 707L1186 708L1185 707z"/>
<path style="fill:#ff0101; stroke:none;" d="M1936 708L1937 709L1936 708z"/>
<path style="fill:#ff7b09; stroke:none;" d="M1235 710L1236 711L1235 710M1317 710L1318 711L1317 710M1234 711L1235 712L1234 711M584 713L585 714L584 713z"/>
<path style="fill:#ff0101; stroke:none;" d="M1906 714L1907 715L1906 714z"/>
<path style="fill:#ff7b09; stroke:none;" d="M585 715L586 716L585 715z"/>
<path style="fill:#ff0101; stroke:none;" d="M1935 715L1936 716L1935 715z"/>
<path style="fill:#ff7b09; stroke:none;" d="M522 716L523 717L522 716M586 717L587 718L586 717M853 717L854 718L853 717z"/>
<path style="fill:#ff0101; stroke:none;" d="M1229 717L1230 718L1229 717z"/>
<path style="fill:#ff7b09; stroke:none;" d="M518 719L519 720L518 719M587 719L588 720L587 719z"/>
<path style="fill:#ff590c; stroke:none;" d="M887 719L888 720L887 719z"/>
<path style="fill:#ff7b09; stroke:none;" d="M1061 719L1062 720L1061 719M1311 719L1312 720L1311 719M1185 720L1186 721L1185 720M1227 720L1228 721L1227 720z"/>
<path style="fill:#ff0101; stroke:none;" d="M515 721L516 722L515 721z"/>
<path style="fill:#ff590c; stroke:none;" d="M1934 721L1935 722L1934 721z"/>
<path style="fill:#ff0101; stroke:none;" d="M988 723L989 724L988 723M1225 723L1226 724L1225 723z"/>
<path style="fill:#ff7b09; stroke:none;" d="M1308 723L1309 724L1308 723z"/>
<path style="fill:#ff590c; stroke:none;" d="M650 724L651 725L650 724z"/>
<path style="fill:#ff0101; stroke:none;" d="M990 726L991 727L990 726z"/>
<path style="fill:#ff7b09; stroke:none;" d="M1058 726L1059 727L1058 726z"/>
<path style="fill:#ff590c; stroke:none;" d="M1132 726L1133 727L1132 726z"/>
<path style="fill:#ff7b09; stroke:none;" d="M505 727L506 728L505 727M1223 727L1224 728L1223 727z"/>
<path style="fill:#ff0101; stroke:none;" d="M832 730L833 731L832 730z"/>
<path style="fill:#ff590c; stroke:none;" d="M891 730L892 731L891 730z"/>
<path style="fill:#ff7b09; stroke:none;" d="M993 730L994 731L993 730M1056 730L1057 731L1056 730M1184 730L1185 731L1184 730M594 731L595 732L594 731M830 731L831 732L830 731z"/>
<path style="fill:#ff590c; stroke:none;" d="M828 732L829 733L828 732z"/>
<path style="fill:#ff7b09; stroke:none;" d="M892 732L893 733L892 732z"/>
<path style="fill:#ff0101; stroke:none;" d="M937 732L938 733L937 732M725 733L726 734L725 733z"/>
<path style="fill:#ff590c; stroke:none;" d="M1932 733L1933 734L1932 733z"/>
<path style="fill:#ff7b09; stroke:none;" d="M726 734L727 735L726 734M824 734L825 735L824 734z"/>
<path style="fill:#ff590c; stroke:none;" d="M893 734L894 735L893 734M727 735L728 736L727 735z"/>
<path style="fill:#ff0101; stroke:none;" d="M822 735L823 736L822 735z"/>
<path style="fill:#ff590c; stroke:none;" d="M998 736L999 737L998 736z"/>
<path style="fill:#ff7b09; stroke:none;" d="M641 737L642 738L641 737z"/>
<path style="fill:#ff590c; stroke:none;" d="M729 737L730 738L729 737M999 737L1000 738L999 737M1902 737L1903 738L1902 737z"/>
<path style="fill:#ff7b09; stroke:none;" d="M483 738L484 739L483 738z"/>
<path style="fill:#ff590c; stroke:none;" d="M934 738L935 739L934 738z"/>
<path style="fill:#ff7b09; stroke:none;" d="M600 739L601 740L600 739M1001 739L1002 740L1001 739z"/>
<path style="fill:#ff0101; stroke:none;" d="M1182 739L1183 740L1182 739M811 740L812 741L811 740z"/>
<path style="fill:#ff590c; stroke:none;" d="M897 740L898 741L897 740z"/>
<path style="fill:#ff7b09; stroke:none;" d="M1002 740L1003 741L1002 740z"/>
<path style="fill:#ff0101; stroke:none;" d="M1135 740L1136 741L1135 740z"/>
<path style="fill:#ff590c; stroke:none;" d="M476 741L477 742L476 741M734 741L735 742L734 741z"/>
<path style="fill:#ff7b09; stroke:none;" d="M403 742L404 743L403 742M931 742L932 743L931 742z"/>
<path style="fill:#ff590c; stroke:none;" d="M635 743L636 744L635 743z"/>
<path style="fill:#ff7b09; stroke:none;" d="M737 743L738 744L737 743M930 743L931 744L930 743z"/>
<path style="fill:#ff590c; stroke:none;" d="M1221 744L1222 745L1221 744M408 745L409 746L408 745z"/>
<path style="fill:#ff7b09; stroke:none;" d="M902 745L903 746L902 745z"/>
<path style="fill:#ff0101; stroke:none;" d="M1008 745L1009 746L1008 745z"/>
<path style="fill:#ff7b09; stroke:none;" d="M742 746L743 747L742 746z"/>
<path style="fill:#ff590c; stroke:none;" d="M461 747L462 748L461 747M1011 747L1012 748L1011 747z"/>
<path style="fill:#ff0101; stroke:none;" d="M1043 747L1044 748L1043 747z"/>
<path style="fill:#ff7b09; stroke:none;" d="M908 748L909 749L908 748M919 748L920 749L919 748z"/>
<path style="fill:#ff590c; stroke:none;" d="M1222 748L1223 749L1222 748z"/>
<path style="fill:#ff0101; stroke:none;" d="M788 749L789 750L788 749z"/>
<path style="fill:#ff7b09; stroke:none;" d="M1140 750L1141 751L1140 750M421 751L422 752L421 751M1176 751L1177 752L1176 751z"/>
<path style="fill:#ff0101; stroke:none;" d="M778 752L779 753L778 752z"/>
<path style="fill:#ff7b09; stroke:none;" d="M1224 752L1225 753L1224 752M1147 757L1148 758L1147 757z"/>
<path style="fill:#ff590c; stroke:none;" d="M1229 757L1230 758L1229 757z"/>
<path style="fill:#ff0101; stroke:none;" d="M1927 758L1928 759L1927 758z"/>
<path style="fill:#ff7b09; stroke:none;" d="M1897 760L1898 761L1897 760z"/>
<path style="fill:#ff590c; stroke:none;" d="M1237 761L1238 762L1237 761z"/>
<path style="fill:#ff7b09; stroke:none;" d="M1241 762L1242 763L1241 762z"/>
<path style="fill:#ff0101; stroke:none;" d="M1255 762L1256 763L1255 762z"/>
<path style="fill:#ff7b09; stroke:none;" d="M1505 762L1506 763L1505 762z"/>
<path style="fill:#ff6d29; stroke:none;" d="M1506 762.532C1480.66 768.569 1490.68 808.826 1516 803.316C1543.81 797.262 1533.67 755.941 1506 762.532z"/>
<path style="fill:#ff7b09; stroke:none;" d="M1518 762L1519 763L1518 762z"/>
<path style="fill:#ff590c; stroke:none;" d="M1926 762L1927 763L1926 762z"/>
<path style="fill:#ff7b09; stroke:none;" d="M1896 764L1897 765L1896 764z"/>
<path style="fill:#ff590c; stroke:none;" d="M1499 765L1500 766L1499 765z"/>
<path style="fill:#ff0101; stroke:none;" d="M1524 765L1525 766L1524 765z"/>
<path style="fill:#010101; stroke:none;" d="M1508 767.638C1488.59 773.225 1496.59 802.527 1516 797.442C1535.47 792.34 1526.94 762.187 1508 767.638z"/>
<path style="fill:#ff0101; stroke:none;" d="M1505 768L1506 769L1505 768z"/>
<path style="fill:#ff7b09; stroke:none;" d="M1518 768L1519 769L1518 768z"/>
<path style="fill:#ff590c; stroke:none;" d="M1895 768L1896 769L1895 768M1528 769L1529 770L1528 769z"/>
<path style="fill:#ff0101; stroke:none;" d="M1521 770L1522 771L1521 770z"/>
<path style="fill:#ff7b09; stroke:none;" d="M1530 772L1531 773L1530 772z"/>
<path style="fill:#ff590c; stroke:none;" d="M1894 772L1895 773L1894 772z"/>
<path style="fill:#ff7b09; stroke:none;" d="M1499 773L1500 774L1499 773M1531 774L1532 775L1531 774z"/>
<path style="fill:#ff590c; stroke:none;" d="M1491 777L1492 778L1491 777z"/>
<path style="fill:#ff0101; stroke:none;" d="M1617 783L1618 784L1617 783z"/>
<path style="fill:#ff590c; stroke:none;" d="M1891 783L1892 784L1891 783z"/>
<path style="fill:#ff7b09; stroke:none;" d="M1406 784L1407 785L1406 784M1527 784L1528 785L1527 784M1920 786L1921 787L1920 786z"/>
<path style="fill:#ff590c; stroke:none;" d="M1491 787L1492 788L1491 787z"/>
<path style="fill:#ff0101; stroke:none;" d="M1532 787L1533 788L1532 787M1407 791L1408 792L1407 791z"/>
<path style="fill:#ff7b09; stroke:none;" d="M1529 794L1530 795L1529 794M1615 794L1616 795L1615 794z"/>
<path style="fill:#ff0101; stroke:none;" d="M1520 795L1521 796L1520 795M1516 797L1517 798L1516 797z"/>
<path style="fill:#ff7b09; stroke:none;" d="M1416 798L1417 799L1416 798z"/>
<path style="fill:#ff590c; stroke:none;" d="M1886 800L1887 801L1886 800M1916 800L1917 801L1916 800z"/>
<path style="fill:#ff7b09; stroke:none;" d="M1502 801L1503 802L1502 801z"/>
<path style="fill:#ff0101; stroke:none;" d="M1521 801L1522 802L1521 801z"/>
<path style="fill:#ff7b09; stroke:none;" d="M1413 803L1414 804L1413 803M1509 803L1510 804L1509 803z"/>
<path style="fill:#ff590c; stroke:none;" d="M1610 803L1611 804L1610 803z"/>
<path style="fill:#ff7b09; stroke:none;" d="M1885 803L1886 804L1885 803M1884 806L1885 807L1884 806z"/>
<path style="fill:#ff0101; stroke:none;" d="M1426 807L1427 808L1426 807M1597 807L1598 808L1597 807M1428 808L1429 809L1428 808z"/>
<path style="fill:#ff7b09; stroke:none;" d="M1595 808L1596 809L1595 808M1419 809L1420 810L1419 809M1434 810L1435 811L1434 810z"/>
<path style="fill:#ff590c; stroke:none;" d="M1589 810L1590 811L1589 810z"/>
<path style="fill:#ff7b09; stroke:none;" d="M1422 811L1423 812L1422 811z"/>
<path style="fill:#ff590c; stroke:none;" d="M1601 811L1602 812L1601 811z"/>
<path style="fill:#ff0101; stroke:none;" d="M1882 812L1883 813L1882 812M1912 813L1913 814L1912 813z"/>
<path style="fill:#ff7b09; stroke:none;" d="M1881 815L1882 816L1881 815z"/>
<path style="fill:#ff590c; stroke:none;" d="M1911 816L1912 817L1911 816M1909 822L1910 823L1909 822z"/>
<path style="fill:#ff0101; stroke:none;" d="M1908 825L1909 826L1908 825z"/>
<path style="fill:#ff7b09; stroke:none;" d="M1876 829L1877 830L1876 829M1904 836L1905 837L1904 836M1873 837L1874 838L1873 837z"/>
<path style="fill:#ff590c; stroke:none;" d="M1871 842L1872 843L1871 842z"/>
<path style="fill:#ff7b09; stroke:none;" d="M1869 847L1870 848L1869 847z"/>
<path style="fill:#ff590c; stroke:none;" d="M1895 859L1896 860L1895 859M1863 861L1864 862L1863 861z"/>
<path style="fill:#ff0101; stroke:none;" d="M1893 864L1894 865L1893 864M1890 871L1891 872L1890 871z"/>
<path style="fill:#ff7b09; stroke:none;" d="M1858 872L1859 873L1858 872z"/>
<path style="fill:#ff590c; stroke:none;" d="M1889 873L1890 874L1889 873z"/>
<path style="fill:#ff0101; stroke:none;" d="M1886 880L1887 881L1886 880z"/>
<path style="fill:#ff590c; stroke:none;" d="M1885 882L1886 883L1885 882M1884 884L1885 885L1884 884z"/>
<path style="fill:#ff0101; stroke:none;" d="M766 887L767 888L766 887z"/>
<path style="fill:#ff590c; stroke:none;" d="M767 889L768 890L767 889z"/>
<path style="fill:#ff7b09; stroke:none;" d="M1843 902L1844 903L1843 902M803 907L804 908L803 907M778 911L779 912L778 911M1837 913L1838 914L1837 913z"/>
<path style="fill:#ff590c; stroke:none;" d="M1868 916L1869 917L1868 916M1833 920L1834 921L1833 920z"/>
<path style="fill:#ff0101; stroke:none;" d="M811 921L812 922L811 921z"/>
<path style="fill:#ff7b09; stroke:none;" d="M784 922L785 923L784 922M1830 925L1831 926L1830 925z"/>
<path style="fill:#ff590c; stroke:none;" d="M1863 925L1864 926L1863 925M815 928L816 929L815 928z"/>
<path style="fill:#ff0101; stroke:none;" d="M1827 930L1828 931L1827 930z"/>
<path style="fill:#ff7b09; stroke:none;" d="M789 931L790 932L789 931M1824 935L1825 936L1824 935z"/>
<path style="fill:#ff590c; stroke:none;" d="M792 936L793 937L792 936z"/>
<path style="fill:#ff0101; stroke:none;" d="M820 936L821 937L820 936M1822 938L1823 939L1822 938M1855 939L1856 940L1855 939M1852 944L1853 945L1852 944z"/>
<path style="fill:#ff7b09; stroke:none;" d="M827 947L828 948L827 947M1815 949L1816 950L1815 949M829 950L830 951L829 950z"/>
<path style="fill:#ff590c; stroke:none;" d="M801 951L802 952L801 951M1813 952L1814 953L1813 952z"/>
<path style="fill:#ff0101; stroke:none;" d="M1847 952L1848 953L1847 952z"/>
<path style="fill:#ff590c; stroke:none;" d="M831 953L832 954L831 953z"/>
<path style="fill:#ff7b09; stroke:none;" d="M1811 955L1812 956L1811 955z"/>
<path style="fill:#ff590c; stroke:none;" d="M1845 955L1846 956L1845 955M833 956L834 957L833 956z"/>
<path style="fill:#ff7b09; stroke:none;" d="M835 959L836 960L835 959z"/>
<path style="fill:#ff0101; stroke:none;" d="M808 962L809 963L808 962z"/>
<path style="fill:#ff7b09; stroke:none;" d="M810 965L811 966L810 965M1804 965L1805 966L1804 965M840 966L841 967L840 966z"/>
<path style="fill:#ff0101; stroke:none;" d="M812 968L813 969L812 968z"/>
<path style="fill:#ff590c; stroke:none;" d="M1799 972L1800 973L1799 972z"/>
<path style="fill:#ff7b09; stroke:none;" d="M1796 976L1797 977L1796 976z"/>
<path style="fill:#ff590c; stroke:none;" d="M1831 976L1832 977L1831 976M848 977L849 978L848 977z"/>
<path style="fill:#ff7b09; stroke:none;" d="M1829 979L1830 980L1829 979M1793 980L1794 981L1793 980M821 981L822 982L821 981z"/>
<path style="fill:#ff590c; stroke:none;" d="M851 981L852 982L851 981z"/>
<path style="fill:#ff0101; stroke:none;" d="M1824 986L1825 987L1824 986M826 988L827 989L826 988M1786 989L1787 990L1786 989z"/>
<path style="fill:#ff590c; stroke:none;" d="M858 990L859 991L858 990z"/>
<path style="fill:#ff7b09; stroke:none;" d="M1821 990L1822 991L1821 990M829 992L830 993L829 992z"/>
<path style="fill:#ff0101; stroke:none;" d="M1782 994L1783 995L1782 994z"/>
<path style="fill:#ff7b09; stroke:none;" d="M1818 994L1819 995L1818 994M862 995L863 996L862 995M832 996L833 997L832 996M1815 998L1816 999L1815 998M1778 999L1779 1000L1778 999z"/>
<path style="fill:#ff0101; stroke:none;" d="M1812 1002L1813 1003L1812 1002z"/>
<path style="fill:#ff7b09; stroke:none;" d="M1773 1005L1774 1006L1773 1005z"/>
<path style="fill:#ff590c; stroke:none;" d="M871 1006L872 1007L871 1006z"/>
<path style="fill:#ff0101; stroke:none;" d="M872 1007L873 1008L872 1007z"/>
<path style="fill:#ff590c; stroke:none;" d="M1808 1007L1809 1008L1808 1007z"/>
<path style="fill:#ff7b09; stroke:none;" d="M1804 1012L1805 1013L1804 1012z"/>
<path style="fill:#ff0101; stroke:none;" d="M1766 1013L1767 1014L1766 1013z"/>
<path style="fill:#ff7b09; stroke:none;" d="M878 1014L879 1015L878 1014z"/>
<path style="fill:#ff590c; stroke:none;" d="M847 1015L848 1016L847 1015z"/>
<path style="fill:#ff7b09; stroke:none;" d="M852 1021L853 1022L852 1021M1758 1022L1759 1023L1758 1022M887 1024L888 1025L887 1024M1794 1024L1795 1025L1794 1024M888 1025L889 1026L888 1025z"/>
<path style="fill:#ff590c; stroke:none;" d="M858 1028L859 1029L858 1028z"/>
<path style="fill:#ff7b09; stroke:none;" d="M1788 1031L1789 1032L1788 1031M865 1036L866 1037L865 1036M1779 1041L1780 1042L1779 1041M1778 1042L1779 1043L1778 1042z"/>
<path style="fill:#ff590c; stroke:none;" d="M1777 1043L1778 1044L1777 1043z"/>
<path style="fill:#ff0101; stroke:none;" d="M878 1050L879 1051L878 1050z"/>
<path style="fill:#ff7b09; stroke:none;" d="M879 1051L880 1052L879 1051z"/>
<path style="fill:#ff590c; stroke:none;" d="M880 1052L881 1053L880 1052z"/>
<path style="fill:#ff7b09; stroke:none;" d="M881 1053L882 1054L881 1053M919 1056L920 1057L919 1056M920 1057L921 1058L920 1057z"/>
<path style="fill:#ff0101; stroke:none;" d="M1721 1059L1722 1060L1721 1059z"/>
<path style="fill:#ff590c; stroke:none;" d="M1720 1060L1721 1061L1720 1060M1719 1061L1720 1062L1719 1061z"/>
<path style="fill:#ff7b09; stroke:none;" d="M894 1066L895 1067L894 1066M930 1066L931 1067L930 1066z"/>
<path style="fill:#ff590c; stroke:none;" d="M896 1068L897 1069L896 1068z"/>
<path style="fill:#ff0101; stroke:none;" d="M1711 1068L1712 1069L1711 1068M897 1069L898 1070L897 1069z"/>
<path style="fill:#ff7b09; stroke:none;" d="M938 1073L939 1074L938 1073z"/>
<path style="fill:#ff0101; stroke:none;" d="M1704 1074L1705 1075L1704 1074z"/>
<path style="fill:#ff7b09; stroke:none;" d="M944 1078L945 1079L944 1078M1742 1078L1743 1079L1742 1078M910 1081L911 1082L910 1081z"/>
<path style="fill:#ff590c; stroke:none;" d="M911 1082L912 1083L911 1082M950 1083L951 1084L950 1083z"/>
<path style="fill:#ff7b09; stroke:none;" d="M1692 1084L1693 1085L1692 1084z"/>
<path style="fill:#ff590c; stroke:none;" d="M1733 1086L1734 1087L1733 1086z"/>
<path style="fill:#ff0101; stroke:none;" d="M1732 1087L1733 1088L1732 1087z"/>
<path style="fill:#ff7b09; stroke:none;" d="M1687 1088L1688 1089L1687 1088M919 1089L920 1090L919 1089z"/>
<path style="fill:#ff0101; stroke:none;" d="M920 1090L921 1091L920 1090M959 1090L960 1091L959 1090M1683 1091L1684 1092L1683 1091z"/>
<path style="fill:#ff7b09; stroke:none;" d="M1725 1093L1726 1094L1725 1093z"/>
<path style="fill:#ff590c; stroke:none;" d="M926 1095L927 1096L926 1095M1678 1095L1679 1096L1678 1095M1674 1098L1675 1099L1674 1098z"/>
<path style="fill:#ff7b09; stroke:none;" d="M932 1100L933 1101L932 1100z"/>
<path style="fill:#ff0101; stroke:none;" d="M975 1102L976 1103L975 1102M1667 1103L1668 1104L1667 1103z"/>
<path style="fill:#ff7b09; stroke:none;" d="M1713 1103L1714 1104L1713 1103z"/>
<path style="fill:#ff0101; stroke:none;" d="M982 1107L983 1108L982 1107z"/>
<path style="fill:#ff7b09; stroke:none;" d="M1708 1107L1709 1108L1708 1107M1660 1108L1661 1109L1660 1108z"/>
<path style="fill:#ff0101; stroke:none;" d="M947 1112L948 1113L947 1112z"/>
<path style="fill:#ff590c; stroke:none;" d="M992 1114L993 1115L992 1114z"/>
<path style="fill:#ff7b09; stroke:none;" d="M1699 1114L1700 1115L1699 1114M951 1115L952 1116L951 1115z"/>
<path style="fill:#ff590c; stroke:none;" d="M955 1118L956 1119L955 1118M1691 1120L1692 1121L1691 1120z"/>
<path style="fill:#ff7b09; stroke:none;" d="M959 1121L960 1122L959 1121M1639 1122L1640 1123L1639 1122z"/>
<path style="fill:#ff590c; stroke:none;" d="M1006 1123L1007 1124L1006 1123z"/>
<path style="fill:#ff0101; stroke:none;" d="M1687 1123L1688 1124L1687 1123z"/>
<path style="fill:#ff7b09; stroke:none;" d="M966 1126L967 1127L966 1126M1631 1127L1632 1128L1631 1127M1014 1128L1015 1129L1014 1128z"/>
<path style="fill:#ff0101; stroke:none;" d="M1680 1128L1681 1129L1680 1128z"/>
<path style="fill:#ff7b09; stroke:none;" d="M1626 1130L1627 1131L1626 1130M1677 1130L1678 1131L1677 1130z"/>
<path style="fill:#ff0101; stroke:none;" d="M973 1131L974 1132L973 1131z"/>
<path style="fill:#ff7b09; stroke:none;" d="M1019 1131L1020 1132L1019 1131z"/>
<path style="fill:#ff0101; stroke:none;" d="M976 1133L977 1134L976 1133z"/>
<path style="fill:#ff7b09; stroke:none;" d="M1621 1133L1622 1134L1621 1133M979 1135L980 1136L979 1135z"/>
<path style="fill:#ff0101; stroke:none;" d="M1614 1137L1615 1138L1614 1137z"/>
<path style="fill:#ff590c; stroke:none;" d="M1031 1138L1032 1139L1031 1138z"/>
<path style="fill:#ff7b09; stroke:none;" d="M985 1139L986 1140L985 1139z"/>
<path style="fill:#ff0101; stroke:none;" d="M988 1141L989 1142L988 1141z"/>
<path style="fill:#ff7b09; stroke:none;" d="M1607 1141L1608 1142L1607 1141z"/>
<path style="fill:#ff590c; stroke:none;" d="M1042 1144L1043 1145L1042 1144z"/>
<path style="fill:#ff7b09; stroke:none;" d="M1656 1144L1657 1145L1656 1144z"/>
<path style="fill:#ff590c; stroke:none;" d="M996 1146L997 1147L996 1146z"/>
<path style="fill:#ff0101; stroke:none;" d="M1653 1146L1654 1147L1653 1146z"/>
<path style="fill:#ff7b09; stroke:none;" d="M1594 1148L1595 1149L1594 1148M1592 1149L1593 1150L1592 1149M1648 1149L1649 1150L1648 1149M1588 1151L1589 1152L1588 1151M1586 1152L1587 1153L1586 1152z"/>
<path style="fill:#ff590c; stroke:none;" d="M1643 1152L1644 1153L1643 1152M1584 1153L1585 1154L1584 1153z"/>
<path style="fill:#ff7b09; stroke:none;" d="M1009 1154L1010 1155L1009 1154M1580 1155L1581 1156L1580 1155z"/>
<path style="fill:#ff0101; stroke:none;" d="M1014 1157L1015 1158L1014 1157z"/>
<path style="fill:#ff7b09; stroke:none;" d="M1633 1158L1634 1159L1633 1158M1072 1159L1073 1160L1072 1159z"/>
<path style="fill:#ff590c; stroke:none;" d="M1074 1160L1075 1161L1074 1160z"/>
<path style="fill:#ff7b09; stroke:none;" d="M1083 1164L1084 1165L1083 1164M1032 1167L1033 1168L1032 1167M1034 1168L1035 1169L1034 1168z"/>
<path style="fill:#ff0101; stroke:none;" d="M1615 1168L1616 1169L1615 1168z"/>
<path style="fill:#ff590c; stroke:none;" d="M1613 1169L1614 1170L1613 1169z"/>
<path style="fill:#ff7b09; stroke:none;" d="M1097 1170L1098 1171L1097 1170M1544 1171L1545 1172L1544 1171M1102 1172L1103 1173L1102 1172z"/>
<path style="fill:#ff590c; stroke:none;" d="M1539 1173L1540 1174L1539 1173z"/>
<path style="fill:#ff0101; stroke:none;" d="M1115 1177L1116 1178L1115 1177z"/>
<path style="fill:#ff590c; stroke:none;" d="M1526 1178L1527 1179L1526 1178z"/>
<path style="fill:#ff7b09; stroke:none;" d="M1523 1179L1524 1180L1523 1179z"/>
<path style="fill:#ff590c; stroke:none;" d="M1123 1180L1124 1181L1123 1180M1591 1180L1592 1181L1591 1180z"/>
<path style="fill:#ff0101; stroke:none;" d="M1126 1181L1127 1182L1126 1181z"/>
<path style="fill:#ff7b09; stroke:none;" d="M1589 1181L1590 1182L1589 1181z"/>
<path style="fill:#ff0101; stroke:none;" d="M1587 1182L1588 1183L1587 1182z"/>
<path style="fill:#ff590c; stroke:none;" d="M1064 1183L1065 1184L1064 1183z"/>
<path style="fill:#ff0101; stroke:none;" d="M1144 1187L1145 1188L1144 1187z"/>
<path style="fill:#ff7b09; stroke:none;" d="M1576 1187L1577 1188L1576 1187M1075 1188L1076 1189L1075 1188M1147 1188L1148 1189L1147 1188M1493 1189L1494 1190L1493 1189z"/>
<path style="fill:#ff590c; stroke:none;" d="M1157 1191L1158 1192L1157 1191M1164 1193L1165 1194L1164 1193M1562 1193L1563 1194L1562 1193z"/>
<path style="fill:#ff0101; stroke:none;" d="M1089 1194L1090 1195L1089 1194z"/>
<path style="fill:#ff590c; stroke:none;" d="M1094 1196L1095 1197L1094 1196z"/>
<path style="fill:#ff7b09; stroke:none;" d="M1468 1196L1469 1197L1468 1196M1464 1197L1465 1198L1464 1197M1099 1198L1100 1199L1099 1198z"/>
<path style="fill:#ff590c; stroke:none;" d="M1547 1199L1548 1200L1547 1199z"/>
<path style="fill:#ff7b09; stroke:none;" d="M1192 1200L1193 1201L1192 1200z"/>
<path style="fill:#ff590c; stroke:none;" d="M1107 1201L1108 1202L1107 1201M1442 1202L1443 1203L1442 1202M1206 1203L1207 1204L1206 1203M1437 1203L1438 1204L1437 1203z"/>
<path style="fill:#ff7b09; stroke:none;" d="M1115 1204L1116 1205L1115 1204M1432 1204L1433 1205L1432 1204z"/>
<path style="fill:#ff0101; stroke:none;" d="M1531 1205L1532 1206L1531 1205z"/>
<path style="fill:#ff590c; stroke:none;" d="M1528 1206L1529 1207L1528 1206z"/>
<path style="fill:#ff7b09; stroke:none;" d="M1228 1207L1229 1208L1228 1207z"/>
<path style="fill:#ff590c; stroke:none;" d="M1258 1211L1259 1212L1258 1211M1385 1211L1386 1212L1385 1211z"/>
<path style="fill:#ff7b09; stroke:none;" d="M1513 1211L1514 1212L1513 1211z"/>
<path style="fill:#ff0101; stroke:none;" d="M1375 1212L1376 1213L1375 1212z"/>
<path style="fill:#ff590c; stroke:none;" d="M1510 1212L1511 1213L1510 1212z"/>
<path style="fill:#ff7b09; stroke:none;" d="M1280 1213L1281 1214L1280 1213M1363 1213L1364 1214L1363 1213z"/>
<path style="fill:#ff0101; stroke:none;" d="M1145 1214L1146 1215L1145 1214z"/>
<path style="fill:#ff7b09; stroke:none;" d="M1152 1216L1153 1217L1152 1216z"/>
<path style="fill:#ff590c; stroke:none;" d="M1493 1217L1494 1218L1493 1217M1159 1218L1160 1219L1159 1218z"/>
<path style="fill:#ff7b09; stroke:none;" d="M1486 1219L1487 1220L1486 1219z"/>
<path style="fill:#ff0101; stroke:none;" d="M1462 1225L1463 1226L1462 1225z"/>
<path style="fill:#ff7b09; stroke:none;" d="M1191 1226L1192 1227L1191 1226z"/>
<path style="fill:#ff0101; stroke:none;" d="M1453 1227L1454 1228L1453 1227z"/>
<path style="fill:#ff7b09; stroke:none;" d="M1448 1228L1449 1229L1448 1228M1211 1230L1212 1231L1211 1230z"/>
<path style="fill:#ff0101; stroke:none;" d="M1216 1231L1217 1232L1216 1231z"/>
<path style="fill:#ff7b09; stroke:none;" d="M1228 1233L1229 1234L1228 1233z"/>
<path style="fill:#ff0101; stroke:none;" d="M1414 1234L1415 1235L1414 1234z"/>
<path style="fill:#ff590c; stroke:none;" d="M1242 1235L1243 1236L1242 1235M1250 1236L1251 1237L1250 1236z"/>
<path style="fill:#ff7b09; stroke:none;" d="M1399 1236L1400 1237L1399 1236z"/>
<path style="fill:#ff590c; stroke:none;" d="M1258 1237L1259 1238L1258 1237M1390 1237L1391 1238L1390 1237z"/>
<path style="fill:#ff7b09; stroke:none;" d="M1380 1238L1381 1239L1380 1238M1281 1239L1282 1240L1281 1239z"/>
<path style="fill:#ff590c; stroke:none;" d="M1350 1240L1351 1241L1350 1240z"/>
</svg>
